<?xml version="1.0" encoding="utf-8"?>
<!-- Generator: Adobe Illustrator 18.1.1, SVG Export Plug-In . SVG Version: 6.00 Build 0)  -->
<svg version="1.1" id="Layer_1" xmlns="http://www.w3.org/2000/svg" xmlns:xlink="http://www.w3.org/1999/xlink" x="0px" y="0px"
	 viewBox="0 0 300 300" enable-background="new 0 0 300 300" xml:space="preserve">
<path fill="#6FC289" d="M222.8,298.2H76.6c-41,0-74.6-33.6-74.6-74.6V77.4c0-41,33.6-74.6,74.6-74.6h146.2c41,0,74.6,33.6,74.6,74.6
	v146.2C297.3,264.6,263.8,298.2,222.8,298.2z"/>
<path opacity="0.15" d="M297.3,223.6v-69.5c-2.6-4.9-5.9-9.4-9.9-13.2c-0.3-0.3-0.7-0.7-1-1c-0.3-0.3-0.7-0.7-1-1
	c-0.3-0.3-0.7-0.7-1-1c-0.3-0.3-0.7-0.7-1-1c-0.3-0.3-0.7-0.7-1-1c-0.3-0.3-0.7-0.7-1-1c-0.3-0.3-0.7-0.7-1-1c-0.3-0.3-0.7-0.7-1-1
	c-0.3-0.3-0.7-0.7-1-1c-0.3-0.3-0.7-0.7-1-1c-0.3-0.3-0.7-0.7-1-1c-0.3-0.3-0.7-0.7-1-1c-0.3-0.3-0.7-0.7-1-1c-0.3-0.3-0.7-0.7-1-1
	c-0.3-0.3-0.7-0.7-1-1c-0.3-0.3-0.7-0.7-1-1c-0.3-0.3-0.7-0.7-1-1c-0.3-0.3-0.7-0.7-1-1c-0.3-0.3-0.7-0.7-1-1c-0.3-0.3-0.7-0.7-1-1
	c-0.3-0.3-0.7-0.7-1-1c-0.3-0.3-0.7-0.7-1-1c-0.3-0.3-0.7-0.7-1-1c-0.3-0.3-0.7-0.7-1-1c-0.3-0.3-0.7-0.7-1-1c-0.3-0.3-0.7-0.7-1-1
	c-0.3-0.3-0.7-0.7-1-1c-0.3-0.3-0.7-0.7-1-1c-0.3-0.3-0.7-0.7-1-1c-0.3-0.3-0.7-0.7-1-1c-0.3-0.3-0.7-0.7-1-1c-0.3-0.3-0.7-0.7-1-1
	c-0.3-0.3-0.7-0.7-1-1c-0.3-0.3-0.7-0.7-1-1c-0.3-0.3-0.7-0.7-1-1c-0.3-0.3-0.7-0.7-1-1c-0.3-0.3-0.7-0.7-1-1c-0.3-0.3-0.7-0.7-1-1
	c-0.3-0.3-0.7-0.7-1-1c-0.3-0.3-0.7-0.7-1-1c-0.3-0.3-0.7-0.7-1-1c-0.3-0.3-0.7-0.7-1-1c-0.3-0.3-0.7-0.7-1-1c-0.3-0.3-0.7-0.7-1-1
	c-0.3-0.3-0.7-0.7-1-1c-0.3-0.3-0.7-0.7-1-1c-0.3-0.3-0.7-0.7-1-1c-0.3-0.3-0.7-0.7-1-1c-0.3-0.3-0.7-0.7-1-1c-0.3-0.3-0.7-0.7-1-1
	c-0.3-0.3-0.7-0.7-1-1c-0.3-0.3-0.7-0.7-1-1c-0.3-0.3-0.7-0.7-1-1c-0.3-0.3-0.7-0.7-1-1c-0.3-0.3-0.7-0.7-1-1c-0.3-0.3-0.7-0.7-1-1
	c-0.3-0.3-0.7-0.7-1-1c-0.3-0.3-0.7-0.7-1-1c-0.3-0.3-0.7-0.7-1-1c-0.3-0.3-0.7-0.7-1-1c-0.3-0.3-0.7-0.7-1-1c-0.3-0.3-0.7-0.7-1-1
	c-0.3-0.3-0.7-0.7-1-1c-0.3-0.3-0.7-0.7-1-1c-9.6-9.9-23-16-37.7-16h-73.8c-29,0-52.7,23.7-52.7,52.8v73.8c0,14.8,6.2,28.1,16,37.7
	c0.3,0.3,0.7,0.7,1,1c0.3,0.3,0.7,0.7,1,1c0.3,0.3,0.7,0.7,1,1c0.3,0.3,0.7,0.7,1,1c0.3,0.3,0.7,0.7,1,1c0.3,0.3,0.7,0.7,1,1
	c0.3,0.3,0.7,0.7,1,1c0.3,0.3,0.7,0.7,1,1c0.3,0.3,0.7,0.7,1,1c0.3,0.3,0.7,0.7,1,1c0.3,0.3,0.7,0.7,1,1c0.3,0.3,0.7,0.7,1,1
	c0.3,0.3,0.7,0.7,1,1c0.3,0.3,0.7,0.7,1,1c0.3,0.3,0.7,0.7,1,1c0.3,0.3,0.7,0.7,1,1c0.3,0.3,0.7,0.7,1,1c0.3,0.3,0.7,0.7,1,1
	c0.3,0.3,0.7,0.7,1,1c0.3,0.3,0.7,0.7,1,1c0.3,0.3,0.7,0.7,1,1c0.3,0.3,0.7,0.7,1,1c0.3,0.3,0.7,0.7,1,1c0.3,0.3,0.7,0.7,1,1
	c0.3,0.3,0.7,0.7,1,1c0.3,0.3,0.7,0.7,1,1c0.3,0.3,0.7,0.7,1,1c0.3,0.3,0.7,0.7,1,1c0.3,0.3,0.7,0.7,1,1c0.3,0.3,0.7,0.7,1,1
	c0.3,0.3,0.7,0.7,1,1c0.3,0.3,0.7,0.7,1,1c0.3,0.3,0.7,0.7,1,1c0.3,0.3,0.7,0.7,1,1c0.3,0.3,0.7,0.7,1,1c0.3,0.3,0.7,0.7,1,1
	c0.3,0.3,0.7,0.7,1,1c0.3,0.3,0.7,0.7,1,1c0.3,0.3,0.7,0.7,1,1c0.3,0.3,0.7,0.7,1,1c0.3,0.3,0.7,0.7,1,1c0.3,0.3,0.7,0.7,1,1
	c0.3,0.3,0.7,0.7,1,1c0.3,0.3,0.7,0.7,1,1c0.3,0.3,0.7,0.7,1,1c0.3,0.3,0.7,0.7,1,1c0.3,0.3,0.7,0.7,1,1c0.3,0.3,0.7,0.7,1,1
	c0.3,0.3,0.7,0.7,1,1c0.3,0.3,0.7,0.7,1,1c0.3,0.3,0.7,0.7,1,1c0.3,0.3,0.7,0.7,1,1c0.3,0.3,0.7,0.7,1,1c0.3,0.3,0.7,0.7,1,1
	c0.3,0.3,0.7,0.7,1,1c0.3,0.3,0.7,0.7,1,1c0.3,0.3,0.7,0.7,1,1c0.3,0.3,0.7,0.7,1,1c0.3,0.3,0.7,0.7,1,1c0.3,0.3,0.7,0.7,1,1
	c0.3,0.3,0.7,0.7,1,1c0.3,0.3,0.7,0.7,1,1c0.3,0.3,0.7,0.7,1,1c0.3,0.3,0.7,0.7,1,1c3.4,3.5,7.3,6.5,11.6,9h72
	C263.8,298.2,297.3,264.6,297.3,223.6z"/>
<path fill="#FFFFFF" d="M185.7,240.2h-73.8c-29,0-52.8-23.7-52.8-52.8v-73.8c0-29,23.7-52.8,52.8-52.8h73.8
	c29,0,52.8,23.7,52.8,52.8v73.8C238.4,216.4,214.7,240.2,185.7,240.2z"/>
<g>
	<path fill="#6FC289" d="M206.1,169.1H93.2c-7.3,0-13.2-5.8-13.2-13v15.3c0,26.5,22.1,48.1,49.1,48.1h41.1c27,0,49.1-21.6,49.1-48.1
		v-15.3C219.3,163.2,213.4,169.1,206.1,169.1z"/>
	<circle fill="#FFFFFF" cx="110.7" cy="189.7" r="10.7"/>
	<circle fill="#FFFFFF" cx="188.7" cy="189.7" r="10.7"/>
</g>
<g>
	<circle fill="#6FC289" stroke="#6FC289" stroke-width="3" stroke-miterlimit="10" cx="135.4" cy="104.6" r="14.8"/>
	<path fill="#FFFFFF" stroke="#6FC289" stroke-width="3" stroke-miterlimit="10" d="M180.6,116.6c-0.2-5.9-5.1-10.7-11.1-10.7
		c-2,0-4,0.6-5.6,1.5c-2.7-4.7-7.8-7.9-13.6-7.9c-8.7,0-15.7,7-15.7,15.7c0,0.3,0,0.5,0,0.8c-6.1,1.2-10.8,6.6-10.8,13.1v0
		c0,7.3,6,13.3,13.3,13.3h38.8c7.3,0,13.3-6,13.3-13.3v0C189.2,123.4,185.7,118.5,180.6,116.6z"/>
	<path fill="#6FC289" d="M119.9,90.9l-4.3-4.4c-0.4-0.4-0.5-1-0.2-1.4l0.4-0.4c0.3-0.3,0.9-0.2,1.4,0.2l4.3,4.4
		c0.4,0.4,0.5,1,0.2,1.4l-0.4,0.4C121,91.5,120.4,91.4,119.9,90.9z"/>
	<path fill="#6FC289" d="M147.7,88.4l4.4-4.3c0.4-0.4,1-0.5,1.4-0.2l0.4,0.4c0.3,0.3,0.2,0.9-0.2,1.4l-4.4,4.3
		c-0.4,0.4-1,0.5-1.4,0.2l-0.4-0.4C147.2,89.4,147.3,88.8,147.7,88.4z"/>
	<path fill="#6FC289" d="M120.5,118.3l-4.4,4.3c-0.4,0.4-1,0.5-1.4,0.2l-0.4-0.4c-0.3-0.3-0.2-0.9,0.2-1.4l4.4-4.3
		c0.4-0.4,1-0.5,1.4-0.2l0.4,0.4C121,117.2,121,117.8,120.5,118.3z"/>
	<path fill="#6FC289" d="M133.2,85l0-6.1c0-0.6,0.4-1.1,0.8-1.1l0.6,0c0.5,0,0.8,0.5,0.8,1.1l0,6.1c0,0.6-0.4,1.1-0.8,1.1l-0.6,0
		C133.6,86.1,133.2,85.6,133.2,85z"/>
	<path fill="#6FC289" d="M115.6,104.6l-6.1,0c-0.6,0-1.1-0.4-1.1-0.8l0-0.6c0-0.5,0.5-0.8,1.1-0.8l6.1,0c0.6,0,1.1,0.4,1.1,0.8
		l0,0.6C116.7,104.2,116.2,104.6,115.6,104.6z"/>
</g>
</svg>
