<?xml version="1.0" encoding="utf-8"?>
<!-- Generator: Adobe Illustrator 18.1.1, SVG Export Plug-In . SVG Version: 6.00 Build 0)  -->
<svg version="1.1" id="Layer_1" xmlns="http://www.w3.org/2000/svg" xmlns:xlink="http://www.w3.org/1999/xlink" x="0px" y="0px"
	 viewBox="0 0 300 300" enable-background="new 0 0 300 300" xml:space="preserve">
<path fill="#75BDE6" d="M223.1,297.7H76.9c-41,0-74.6-33.6-74.6-74.6V76.9c0-41,33.6-74.6,74.6-74.6h146.2c41,0,74.6,33.6,74.6,74.6
	v146.2C297.7,264.1,264.1,297.7,223.1,297.7z"/>
<path opacity="0.15" d="M297.7,223.1v-69.5c-2.6-4.9-5.9-9.4-9.9-13.2c-0.3-0.3-0.7-0.7-1-1c-0.3-0.3-0.7-0.7-1-1
	c-0.3-0.3-0.7-0.7-1-1c-0.3-0.3-0.7-0.7-1-1c-0.3-0.3-0.7-0.7-1-1c-0.3-0.3-0.7-0.7-1-1c-0.3-0.3-0.7-0.7-1-1c-0.3-0.3-0.7-0.7-1-1
	c-0.3-0.3-0.7-0.7-1-1c-0.3-0.3-0.7-0.7-1-1c-0.3-0.3-0.7-0.7-1-1c-0.3-0.3-0.7-0.7-1-1c-0.3-0.3-0.7-0.7-1-1c-0.3-0.3-0.7-0.7-1-1
	c-0.3-0.3-0.7-0.7-1-1c-0.3-0.3-0.7-0.7-1-1c-0.3-0.3-0.7-0.7-1-1c-0.3-0.3-0.7-0.7-1-1c-0.3-0.3-0.7-0.7-1-1c-0.3-0.3-0.7-0.7-1-1
	c-0.3-0.3-0.7-0.7-1-1c-0.3-0.3-0.7-0.7-1-1c-0.3-0.3-0.7-0.7-1-1c-0.3-0.3-0.7-0.7-1-1c-0.3-0.3-0.7-0.7-1-1c-0.3-0.3-0.7-0.7-1-1
	c-0.3-0.3-0.7-0.7-1-1c-0.3-0.3-0.7-0.7-1-1c-0.3-0.3-0.7-0.7-1-1c-0.3-0.3-0.7-0.7-1-1c-0.3-0.3-0.7-0.7-1-1c-0.3-0.3-0.7-0.7-1-1
	c-0.3-0.3-0.7-0.7-1-1c-0.3-0.3-0.7-0.7-1-1c-0.3-0.3-0.7-0.7-1-1c-0.3-0.3-0.7-0.7-1-1c-0.3-0.3-0.7-0.7-1-1c-0.3-0.3-0.7-0.7-1-1
	c-0.3-0.3-0.7-0.7-1-1c-0.3-0.3-0.7-0.7-1-1c-0.3-0.3-0.7-0.7-1-1c-0.3-0.3-0.7-0.7-1-1c-0.3-0.3-0.7-0.7-1-1c-0.3-0.3-0.7-0.7-1-1
	c-0.3-0.3-0.7-0.7-1-1c-0.3-0.3-0.7-0.7-1-1c-0.3-0.3-0.7-0.7-1-1c-0.3-0.3-0.7-0.7-1-1c-0.3-0.3-0.7-0.7-1-1c-0.3-0.3-0.7-0.7-1-1
	c-0.3-0.3-0.7-0.7-1-1c-0.3-0.3-0.7-0.7-1-1c-0.3-0.3-0.7-0.7-1-1c-0.3-0.3-0.7-0.7-1-1c-0.3-0.3-0.7-0.7-1-1c-0.3-0.3-0.7-0.7-1-1
	c-0.3-0.3-0.7-0.7-1-1c-0.3-0.3-0.7-0.7-1-1c-0.3-0.3-0.7-0.7-1-1c-0.3-0.3-0.7-0.7-1-1c-0.3-0.3-0.7-0.7-1-1c-0.3-0.3-0.7-0.7-1-1
	c-0.3-0.3-0.7-0.7-1-1c-0.3-0.3-0.7-0.7-1-1c-9.6-9.9-23-16-37.7-16h-73.8c-29,0-52.8,23.7-52.8,52.8v73.8c0,14.8,6.2,28.1,16,37.7
	c0.3,0.3,0.7,0.7,1,1c0.3,0.3,0.7,0.7,1,1c0.3,0.3,0.7,0.7,1,1c0.3,0.3,0.7,0.7,1,1c0.3,0.3,0.7,0.7,1,1c0.3,0.3,0.7,0.7,1,1
	c0.3,0.3,0.7,0.7,1,1c0.3,0.3,0.7,0.7,1,1c0.3,0.3,0.7,0.7,1,1c0.3,0.3,0.7,0.7,1,1c0.3,0.3,0.7,0.7,1,1c0.3,0.3,0.7,0.7,1,1
	c0.3,0.3,0.7,0.7,1,1c0.3,0.3,0.7,0.7,1,1c0.3,0.3,0.7,0.7,1,1c0.3,0.3,0.7,0.7,1,1c0.3,0.3,0.7,0.7,1,1c0.3,0.3,0.7,0.7,1,1
	c0.3,0.3,0.7,0.7,1,1c0.3,0.3,0.7,0.7,1,1c0.3,0.3,0.7,0.7,1,1c0.3,0.3,0.7,0.7,1,1c0.3,0.3,0.7,0.7,1,1c0.3,0.3,0.7,0.7,1,1
	c0.3,0.3,0.7,0.7,1,1c0.3,0.3,0.7,0.7,1,1c0.3,0.3,0.7,0.7,1,1c0.3,0.3,0.7,0.7,1,1c0.3,0.3,0.7,0.7,1,1c0.3,0.3,0.7,0.7,1,1
	c0.3,0.3,0.7,0.7,1,1c0.3,0.3,0.7,0.7,1,1c0.3,0.3,0.7,0.7,1,1c0.3,0.3,0.7,0.7,1,1c0.3,0.3,0.7,0.7,1,1c0.3,0.3,0.7,0.7,1,1
	c0.3,0.3,0.7,0.7,1,1c0.3,0.3,0.7,0.7,1,1c0.3,0.3,0.7,0.7,1,1c0.3,0.3,0.7,0.7,1,1c0.3,0.3,0.7,0.7,1,1c0.3,0.3,0.7,0.7,1,1
	c0.3,0.3,0.7,0.7,1,1c0.3,0.3,0.7,0.7,1,1c0.3,0.3,0.7,0.7,1,1c0.3,0.3,0.7,0.7,1,1c0.3,0.3,0.7,0.7,1,1c0.3,0.3,0.7,0.7,1,1
	c0.3,0.3,0.7,0.7,1,1c0.3,0.3,0.7,0.7,1,1c0.3,0.3,0.7,0.7,1,1c0.3,0.3,0.7,0.7,1,1c0.3,0.3,0.7,0.7,1,1c0.3,0.3,0.7,0.7,1,1
	c0.3,0.3,0.7,0.7,1,1c0.3,0.3,0.7,0.7,1,1c0.3,0.3,0.7,0.7,1,1c0.3,0.3,0.7,0.7,1,1c0.3,0.3,0.7,0.7,1,1c0.3,0.3,0.7,0.7,1,1
	c0.3,0.3,0.7,0.7,1,1c0.3,0.3,0.7,0.7,1,1c0.3,0.3,0.7,0.7,1,1c0.3,0.3,0.7,0.7,1,1c3.4,3.5,7.3,6.5,11.6,9h72
	C264.1,297.7,297.7,264.1,297.7,223.1z"/>
<path fill="#FFFFFF" d="M186,239.7h-73.8c-29,0-52.8-23.7-52.8-52.8v-73.8c0-29,23.7-52.8,52.8-52.8H186c29,0,52.8,23.7,52.8,52.8
	v73.8C238.8,215.9,215,239.7,186,239.7z"/>
<g>
	<path fill="#75BDE6" d="M206.4,168.6H93.6c-7.3,0-13.2-5.8-13.2-13v15.3c0,26.5,22.1,48.1,49.1,48.1h41.1c27,0,49.1-21.6,49.1-48.1
		v-15.3C219.7,162.7,213.7,168.6,206.4,168.6z"/>
	<circle fill="#FFFFFF" cx="111" cy="189.2" r="10.7"/>
	<circle fill="#FFFFFF" cx="189" cy="189.2" r="10.7"/>
</g>
<g>
	<circle fill="#75BDE6" stroke="#75BDE6" stroke-width="3" stroke-miterlimit="10" cx="135.7" cy="104.1" r="14.8"/>
	<path fill="#FFFFFF" stroke="#75BDE6" stroke-width="3" stroke-miterlimit="10" d="M181,116.1c-0.2-5.9-5.1-10.7-11.1-10.7
		c-2,0-4,0.6-5.6,1.5c-2.7-4.7-7.8-7.9-13.6-7.9c-8.7,0-15.7,7-15.7,15.7c0,0.3,0,0.5,0,0.8c-6.1,1.2-10.8,6.6-10.8,13.1v0
		c0,7.3,6,13.3,13.3,13.3h38.8c7.3,0,13.3-6,13.3-13.3v0C189.6,122.9,186,118,181,116.1z"/>
	<path fill="#75BDE6" d="M120.3,90.4l-4.3-4.4c-0.4-0.4-0.5-1-0.2-1.4l0.4-0.4c0.3-0.3,0.9-0.2,1.4,0.2l4.3,4.4
		c0.4,0.4,0.5,1,0.2,1.4l-0.4,0.4C121.3,91,120.7,90.9,120.3,90.4z"/>
	<path fill="#75BDE6" d="M148.1,87.9l4.4-4.3c0.4-0.4,1-0.5,1.4-0.2l0.4,0.4c0.3,0.3,0.2,0.9-0.2,1.4l-4.4,4.3
		c-0.4,0.4-1,0.5-1.4,0.2l-0.4-0.4C147.6,88.9,147.6,88.3,148.1,87.9z"/>
	<path fill="#75BDE6" d="M120.9,117.8l-4.4,4.3c-0.4,0.4-1,0.5-1.4,0.2l-0.4-0.4c-0.3-0.3-0.2-0.9,0.2-1.4l4.4-4.3
		c0.4-0.4,1-0.5,1.4-0.2l0.4,0.4C121.4,116.7,121.3,117.3,120.9,117.8z"/>
	<path fill="#75BDE6" d="M133.5,84.5l0-6.1c0-0.6,0.4-1.1,0.8-1.1l0.6,0c0.5,0,0.8,0.5,0.8,1.1l0,6.1c0,0.6-0.4,1.1-0.8,1.1l-0.6,0
		C133.9,85.6,133.5,85.1,133.5,84.5z"/>
	<path fill="#75BDE6" d="M115.9,104.1l-6.1,0c-0.6,0-1.1-0.4-1.1-0.8l0-0.6c0-0.5,0.5-0.8,1.1-0.8l6.1,0c0.6,0,1.1,0.4,1.1,0.8
		l0,0.6C117,103.7,116.5,104.1,115.9,104.1z"/>
</g>
</svg>
