<?xml version="1.0" encoding="utf-8"?>
<!-- Generator: Adobe Illustrator 18.1.1, SVG Export Plug-In . SVG Version: 6.00 Build 0)  -->
<svg version="1.1" id="Layer_1" xmlns="http://www.w3.org/2000/svg" xmlns:xlink="http://www.w3.org/1999/xlink" x="0px" y="0px"
	 viewBox="0 0 300 300" enable-background="new 0 0 300 300" xml:space="preserve">
<path fill="#FFC00E" d="M223.1,299H76.9c-41,0-74.6-33.6-74.6-74.6V78.3c0-41,33.6-74.6,74.6-74.6h146.2c41,0,74.6,33.6,74.6,74.6
	v146.2C297.7,265.4,264.1,299,223.1,299z"/>
<path opacity="0.15" d="M297.7,224.4v-69.5c-2.6-4.9-5.9-9.4-9.9-13.2c-0.3-0.3-0.7-0.7-1-1c-0.3-0.3-0.7-0.7-1-1
	c-0.3-0.3-0.7-0.7-1-1c-0.3-0.3-0.7-0.7-1-1c-0.3-0.3-0.7-0.7-1-1c-0.3-0.3-0.7-0.7-1-1c-0.3-0.3-0.7-0.7-1-1c-0.3-0.3-0.7-0.7-1-1
	c-0.3-0.3-0.7-0.7-1-1c-0.3-0.3-0.7-0.7-1-1c-0.3-0.3-0.7-0.7-1-1c-0.3-0.3-0.7-0.7-1-1c-0.3-0.3-0.7-0.7-1-1c-0.3-0.3-0.7-0.7-1-1
	c-0.3-0.3-0.7-0.7-1-1c-0.3-0.3-0.7-0.7-1-1c-0.3-0.3-0.7-0.7-1-1c-0.3-0.3-0.7-0.7-1-1c-0.3-0.3-0.7-0.7-1-1c-0.3-0.3-0.7-0.7-1-1
	c-0.3-0.3-0.7-0.7-1-1c-0.3-0.3-0.7-0.7-1-1c-0.3-0.3-0.7-0.7-1-1c-0.3-0.3-0.7-0.7-1-1c-0.3-0.3-0.7-0.7-1-1c-0.3-0.3-0.7-0.7-1-1
	c-0.3-0.3-0.7-0.7-1-1c-0.3-0.3-0.7-0.7-1-1c-0.3-0.3-0.7-0.7-1-1c-0.3-0.3-0.7-0.7-1-1c-0.3-0.3-0.7-0.7-1-1c-0.3-0.3-0.7-0.7-1-1
	c-0.3-0.3-0.7-0.7-1-1c-0.3-0.3-0.7-0.7-1-1c-0.3-0.3-0.7-0.7-1-1c-0.3-0.3-0.7-0.7-1-1c-0.3-0.3-0.7-0.7-1-1c-0.3-0.3-0.7-0.7-1-1
	c-0.3-0.3-0.7-0.7-1-1c-0.3-0.3-0.7-0.7-1-1c-0.3-0.3-0.7-0.7-1-1c-0.3-0.3-0.7-0.7-1-1c-0.3-0.3-0.7-0.7-1-1c-0.3-0.3-0.7-0.7-1-1
	c-0.3-0.3-0.7-0.7-1-1c-0.3-0.3-0.7-0.7-1-1c-0.3-0.3-0.7-0.7-1-1c-0.3-0.3-0.7-0.7-1-1c-0.3-0.3-0.7-0.7-1-1c-0.3-0.3-0.7-0.7-1-1
	c-0.3-0.3-0.7-0.7-1-1c-0.3-0.3-0.7-0.7-1-1c-0.3-0.3-0.7-0.7-1-1c-0.3-0.3-0.7-0.7-1-1c-0.3-0.3-0.7-0.7-1-1c-0.3-0.3-0.7-0.7-1-1
	c-0.3-0.3-0.7-0.7-1-1c-0.3-0.3-0.7-0.7-1-1c-0.3-0.3-0.7-0.7-1-1c-0.3-0.3-0.7-0.7-1-1c-0.3-0.3-0.7-0.7-1-1c-0.3-0.3-0.7-0.7-1-1
	c-0.3-0.3-0.7-0.7-1-1c-0.3-0.3-0.7-0.7-1-1c-9.6-9.9-23-16-37.7-16h-73.8c-29,0-52.8,23.7-52.8,52.8v73.8c0,14.8,6.2,28.1,16,37.7
	c0.3,0.3,0.7,0.7,1,1c0.3,0.3,0.7,0.7,1,1c0.3,0.3,0.7,0.7,1,1c0.3,0.3,0.7,0.7,1,1c0.3,0.3,0.7,0.7,1,1c0.3,0.3,0.7,0.7,1,1
	c0.3,0.3,0.7,0.7,1,1c0.3,0.3,0.7,0.7,1,1c0.3,0.3,0.7,0.7,1,1c0.3,0.3,0.7,0.7,1,1c0.3,0.3,0.7,0.7,1,1c0.3,0.3,0.7,0.7,1,1
	c0.3,0.3,0.7,0.7,1,1c0.3,0.3,0.7,0.7,1,1c0.3,0.3,0.7,0.7,1,1c0.3,0.3,0.7,0.7,1,1c0.3,0.3,0.7,0.7,1,1c0.3,0.3,0.7,0.7,1,1
	c0.3,0.3,0.7,0.7,1,1c0.3,0.3,0.7,0.7,1,1c0.3,0.3,0.7,0.7,1,1c0.3,0.3,0.7,0.7,1,1c0.3,0.3,0.7,0.7,1,1c0.3,0.3,0.7,0.7,1,1
	c0.3,0.3,0.7,0.7,1,1c0.3,0.3,0.7,0.7,1,1c0.3,0.3,0.7,0.7,1,1c0.3,0.3,0.7,0.7,1,1c0.3,0.3,0.7,0.7,1,1c0.3,0.3,0.7,0.7,1,1
	c0.3,0.3,0.7,0.7,1,1c0.3,0.3,0.7,0.7,1,1c0.3,0.3,0.7,0.7,1,1c0.3,0.3,0.7,0.7,1,1c0.3,0.3,0.7,0.7,1,1c0.3,0.3,0.7,0.7,1,1
	c0.3,0.3,0.7,0.7,1,1c0.3,0.3,0.7,0.7,1,1c0.3,0.3,0.7,0.7,1,1c0.3,0.3,0.7,0.7,1,1c0.3,0.3,0.7,0.7,1,1c0.3,0.3,0.7,0.7,1,1
	c0.3,0.3,0.7,0.7,1,1c0.3,0.3,0.7,0.7,1,1c0.3,0.3,0.7,0.7,1,1c0.3,0.3,0.7,0.7,1,1c0.3,0.3,0.7,0.7,1,1c0.3,0.3,0.7,0.7,1,1
	c0.3,0.3,0.7,0.7,1,1c0.3,0.3,0.7,0.7,1,1c0.3,0.3,0.7,0.7,1,1c0.3,0.3,0.7,0.7,1,1c0.3,0.3,0.7,0.7,1,1c0.3,0.3,0.7,0.7,1,1
	c0.3,0.3,0.7,0.7,1,1c0.3,0.3,0.7,0.7,1,1c0.3,0.3,0.7,0.7,1,1c0.3,0.3,0.7,0.7,1,1c0.3,0.3,0.7,0.7,1,1c0.3,0.3,0.7,0.7,1,1
	c0.3,0.3,0.7,0.7,1,1c0.3,0.3,0.7,0.7,1,1c0.3,0.3,0.7,0.7,1,1c0.3,0.3,0.7,0.7,1,1c3.4,3.5,7.3,6.5,11.6,9h72
	C264.1,299,297.7,265.4,297.7,224.4z"/>
<path fill="#FFFFFF" d="M186,241h-73.8c-29,0-52.8-23.7-52.8-52.8v-73.8c0-29,23.7-52.7,52.8-52.7H186c29,0,52.8,23.7,52.8,52.7
	v73.8C238.8,217.3,215,241,186,241z"/>
<g>
	<path fill="#FFC00E" d="M206.4,169.9H93.6c-7.3,0-13.2-5.8-13.2-13v15.3c0,26.5,22.1,48.1,49.1,48.1h41.1c27,0,49.1-21.6,49.1-48.1
		v-15.3C219.7,164.1,213.7,169.9,206.4,169.9z"/>
	<circle fill="#FFFFFF" cx="111" cy="190.6" r="10.7"/>
	<circle fill="#FFFFFF" cx="189" cy="190.6" r="10.7"/>
</g>
<g>
	<circle fill="#FFC00E" stroke="#FFC00E" stroke-width="3" stroke-miterlimit="10" cx="135.7" cy="105.4" r="14.8"/>
	<path fill="#FFFFFF" stroke="#FFC00E" stroke-width="3" stroke-miterlimit="10" d="M181,117.4c-0.2-5.9-5.1-10.7-11.1-10.7
		c-2,0-4,0.6-5.6,1.5c-2.7-4.7-7.8-7.9-13.6-7.9c-8.7,0-15.7,7-15.7,15.7c0,0.3,0,0.5,0,0.8c-6.1,1.2-10.8,6.6-10.8,13.1v0
		c0,7.3,6,13.3,13.3,13.3h38.8c7.3,0,13.3-6,13.3-13.3v0C189.6,124.2,186,119.3,181,117.4z"/>
	<path fill="#FFC00E" d="M120.3,91.8l-4.3-4.4c-0.4-0.4-0.5-1-0.2-1.4l0.4-0.4c0.3-0.3,0.9-0.2,1.4,0.2l4.3,4.4
		c0.4,0.4,0.5,1,0.2,1.4l-0.4,0.4C121.3,92.3,120.7,92.2,120.3,91.8z"/>
	<path fill="#FFC00E" d="M148.1,89.2l4.4-4.3c0.4-0.4,1-0.5,1.4-0.2l0.4,0.4c0.3,0.3,0.2,0.9-0.2,1.4l-4.4,4.3
		c-0.4,0.4-1,0.5-1.4,0.2l-0.4-0.4C147.6,90.2,147.6,89.6,148.1,89.2z"/>
	<path fill="#FFC00E" d="M120.9,119.1l-4.4,4.3c-0.4,0.4-1,0.5-1.4,0.2l-0.4-0.4c-0.3-0.3-0.2-0.9,0.2-1.4l4.4-4.3
		c0.4-0.4,1-0.5,1.4-0.2l0.4,0.4C121.4,118.1,121.3,118.7,120.9,119.1z"/>
	<path fill="#FFC00E" d="M133.5,85.8l0-6.1c0-0.6,0.4-1.1,0.8-1.1l0.6,0c0.5,0,0.8,0.5,0.8,1.1l0,6.1c0,0.6-0.4,1.1-0.8,1.1l-0.6,0
		C133.9,86.9,133.5,86.4,133.5,85.8z"/>
	<path fill="#FFC00E" d="M115.9,105.5l-6.1,0c-0.6,0-1.1-0.4-1.1-0.8l0-0.6c0-0.5,0.5-0.8,1.1-0.8l6.1,0c0.6,0,1.1,0.4,1.1,0.8
		l0,0.6C117,105.1,116.5,105.5,115.9,105.5z"/>
</g>
</svg>
