<?xml version="1.0" encoding="utf-8"?>
<!-- Generator: Adobe Illustrator 18.1.1, SVG Export Plug-In . SVG Version: 6.00 Build 0)  -->
<svg version="1.1" id="Layer_1" xmlns="http://www.w3.org/2000/svg" xmlns:xlink="http://www.w3.org/1999/xlink" x="0px" y="0px"
	 viewBox="0 0 300 300" enable-background="new 0 0 300 300" xml:space="preserve">
<path fill="#3BBFC7" d="M224.1,297.2H77.9c-41,0-74.6-33.6-74.6-74.6V76.4c0-41,33.6-74.6,74.6-74.6h146.2c41,0,74.6,33.6,74.6,74.6
	v146.2C298.7,263.6,265.1,297.2,224.1,297.2z"/>
<path opacity="0.15" d="M298.7,222.6v-69.5c-2.6-4.9-5.9-9.4-9.9-13.2c-0.3-0.3-0.7-0.7-1-1c-0.3-0.3-0.7-0.7-1-1
	c-0.3-0.3-0.7-0.7-1-1c-0.3-0.3-0.7-0.7-1-1c-0.3-0.3-0.7-0.7-1-1c-0.3-0.3-0.7-0.7-1-1c-0.3-0.3-0.7-0.7-1-1c-0.3-0.3-0.7-0.7-1-1
	c-0.3-0.3-0.7-0.7-1-1c-0.3-0.3-0.7-0.7-1-1c-0.3-0.3-0.7-0.7-1-1c-0.3-0.3-0.7-0.7-1-1c-0.3-0.3-0.7-0.7-1-1c-0.3-0.3-0.7-0.7-1-1
	c-0.3-0.3-0.7-0.7-1-1c-0.3-0.3-0.7-0.7-1-1c-0.3-0.3-0.7-0.7-1-1c-0.3-0.3-0.7-0.7-1-1c-0.3-0.3-0.7-0.7-1-1c-0.3-0.3-0.7-0.7-1-1
	c-0.3-0.3-0.7-0.7-1-1c-0.3-0.3-0.7-0.7-1-1c-0.3-0.3-0.7-0.7-1-1c-0.3-0.3-0.7-0.7-1-1c-0.3-0.3-0.7-0.7-1-1c-0.3-0.3-0.7-0.7-1-1
	c-0.3-0.3-0.7-0.7-1-1c-0.3-0.3-0.7-0.7-1-1c-0.3-0.3-0.7-0.7-1-1c-0.3-0.3-0.7-0.7-1-1c-0.3-0.3-0.7-0.7-1-1c-0.3-0.3-0.7-0.7-1-1
	c-0.3-0.3-0.7-0.7-1-1c-0.3-0.3-0.7-0.7-1-1c-0.3-0.3-0.7-0.7-1-1c-0.3-0.3-0.7-0.7-1-1c-0.3-0.3-0.7-0.7-1-1c-0.3-0.3-0.7-0.7-1-1
	c-0.3-0.3-0.7-0.7-1-1c-0.3-0.3-0.7-0.7-1-1c-0.3-0.3-0.7-0.7-1-1c-0.3-0.3-0.7-0.7-1-1c-0.3-0.3-0.7-0.7-1-1c-0.3-0.3-0.7-0.7-1-1
	c-0.3-0.3-0.7-0.7-1-1c-0.3-0.3-0.7-0.7-1-1c-0.3-0.3-0.7-0.7-1-1c-0.3-0.3-0.7-0.7-1-1c-0.3-0.3-0.7-0.7-1-1c-0.3-0.3-0.7-0.7-1-1
	c-0.3-0.3-0.7-0.7-1-1c-0.3-0.3-0.7-0.7-1-1c-0.3-0.3-0.7-0.7-1-1c-0.3-0.3-0.7-0.7-1-1c-0.3-0.3-0.7-0.7-1-1c-0.3-0.3-0.7-0.7-1-1
	c-0.3-0.3-0.7-0.7-1-1c-0.3-0.3-0.7-0.7-1-1c-0.3-0.3-0.7-0.7-1-1c-0.3-0.3-0.7-0.7-1-1c-0.3-0.3-0.7-0.7-1-1c-0.3-0.3-0.7-0.7-1-1
	c-0.3-0.3-0.7-0.7-1-1c-0.3-0.3-0.7-0.7-1-1c-9.6-9.9-23-16-37.7-16h-73.8c-29,0-52.7,23.7-52.7,52.8v73.8c0,14.8,6.2,28.1,16,37.7
	c0.3,0.3,0.7,0.7,1,1c0.3,0.3,0.7,0.7,1,1c0.3,0.3,0.7,0.7,1,1c0.3,0.3,0.7,0.7,1,1c0.3,0.3,0.7,0.7,1,1c0.3,0.3,0.7,0.7,1,1
	c0.3,0.3,0.7,0.7,1,1c0.3,0.3,0.7,0.7,1,1c0.3,0.3,0.7,0.7,1,1c0.3,0.3,0.7,0.7,1,1c0.3,0.3,0.7,0.7,1,1c0.3,0.3,0.7,0.7,1,1
	c0.3,0.3,0.7,0.7,1,1c0.3,0.3,0.7,0.7,1,1c0.3,0.3,0.7,0.7,1,1c0.3,0.3,0.7,0.7,1,1c0.3,0.3,0.7,0.7,1,1c0.3,0.3,0.7,0.7,1,1
	c0.3,0.3,0.7,0.7,1,1c0.3,0.3,0.7,0.7,1,1c0.3,0.3,0.7,0.7,1,1c0.3,0.3,0.7,0.7,1,1c0.3,0.3,0.7,0.7,1,1c0.3,0.3,0.7,0.7,1,1
	c0.3,0.3,0.7,0.7,1,1c0.3,0.3,0.7,0.7,1,1c0.3,0.3,0.7,0.7,1,1c0.3,0.3,0.7,0.7,1,1c0.3,0.3,0.7,0.7,1,1c0.3,0.3,0.7,0.7,1,1
	c0.3,0.3,0.7,0.7,1,1c0.3,0.3,0.7,0.7,1,1c0.3,0.3,0.7,0.7,1,1c0.3,0.3,0.7,0.7,1,1c0.3,0.3,0.7,0.7,1,1c0.3,0.3,0.7,0.7,1,1
	c0.3,0.3,0.7,0.7,1,1c0.3,0.3,0.7,0.7,1,1c0.3,0.3,0.7,0.7,1,1c0.3,0.3,0.7,0.7,1,1c0.3,0.3,0.7,0.7,1,1c0.3,0.3,0.7,0.7,1,1
	c0.3,0.3,0.7,0.7,1,1c0.3,0.3,0.7,0.7,1,1c0.3,0.3,0.7,0.7,1,1c0.3,0.3,0.7,0.7,1,1c0.3,0.3,0.7,0.7,1,1c0.3,0.3,0.7,0.7,1,1
	c0.3,0.3,0.7,0.7,1,1c0.3,0.3,0.7,0.7,1,1c0.3,0.3,0.7,0.7,1,1c0.3,0.3,0.7,0.7,1,1c0.3,0.3,0.7,0.7,1,1c0.3,0.3,0.7,0.7,1,1
	c0.3,0.3,0.7,0.7,1,1c0.3,0.3,0.7,0.7,1,1c0.3,0.3,0.7,0.7,1,1c0.3,0.3,0.7,0.7,1,1c0.3,0.3,0.7,0.7,1,1c0.3,0.3,0.7,0.7,1,1
	c0.3,0.3,0.7,0.7,1,1c0.3,0.3,0.7,0.7,1,1c0.3,0.3,0.7,0.7,1,1c0.3,0.3,0.7,0.7,1,1c3.4,3.5,7.3,6.5,11.6,9h72
	C265.1,297.2,298.7,263.6,298.7,222.6z"/>
<path fill="#FFFFFF" d="M187,239.2h-73.8c-29,0-52.8-23.7-52.8-52.8v-73.8c0-29,23.7-52.8,52.8-52.8H187c29,0,52.8,23.7,52.8,52.8
	v73.8C239.8,215.4,216,239.2,187,239.2z"/>
<g>
	<path fill="#3BBFC7" d="M207.4,168.1H94.6c-7.3,0-13.2-5.8-13.2-13v15.3c0,26.5,22.1,48.1,49.1,48.1h41.1c27,0,49.1-21.6,49.1-48.1
		v-15.3C220.7,162.2,214.7,168.1,207.4,168.1z"/>
	<circle fill="#FFFFFF" cx="112" cy="188.7" r="10.7"/>
	<circle fill="#FFFFFF" cx="190" cy="188.7" r="10.7"/>
</g>
<g>
	<circle fill="#3BBFC7" stroke="#3BBFC7" stroke-width="3" stroke-miterlimit="10" cx="136.7" cy="103.6" r="14.8"/>
	<path fill="#FFFFFF" stroke="#3BBFC7" stroke-width="3" stroke-miterlimit="10" d="M182,115.6c-0.2-5.9-5.1-10.7-11.1-10.7
		c-2,0-4,0.6-5.6,1.5c-2.7-4.7-7.8-7.9-13.6-7.9c-8.7,0-15.7,7-15.7,15.7c0,0.3,0,0.5,0,0.8c-6.1,1.2-10.8,6.6-10.8,13.1v0
		c0,7.3,6,13.3,13.3,13.3h38.8c7.3,0,13.3-6,13.3-13.3v0C190.6,122.4,187,117.5,182,115.6z"/>
	<path fill="#3BBFC7" d="M121.3,89.9l-4.3-4.4c-0.4-0.4-0.5-1-0.2-1.4l0.4-0.4c0.3-0.3,0.9-0.2,1.4,0.2l4.3,4.4
		c0.4,0.4,0.5,1,0.2,1.4l-0.4,0.4C122.3,90.5,121.7,90.4,121.3,89.9z"/>
	<path fill="#3BBFC7" d="M149.1,87.4l4.4-4.3c0.4-0.4,1-0.5,1.4-0.2l0.4,0.4c0.3,0.3,0.2,0.9-0.2,1.4l-4.4,4.3
		c-0.4,0.4-1,0.5-1.4,0.2l-0.4-0.4C148.6,88.4,148.6,87.8,149.1,87.4z"/>
	<path fill="#3BBFC7" d="M121.9,117.3l-4.4,4.3c-0.4,0.4-1,0.5-1.4,0.2l-0.4-0.4c-0.3-0.3-0.2-0.9,0.2-1.4l4.4-4.3
		c0.4-0.4,1-0.5,1.4-0.2l0.4,0.4C122.4,116.2,122.3,116.8,121.9,117.3z"/>
	<path fill="#3BBFC7" d="M134.5,84l0-6.1c0-0.6,0.4-1.1,0.8-1.1l0.6,0c0.5,0,0.8,0.5,0.8,1.1l0,6.1c0,0.6-0.4,1.1-0.8,1.1l-0.6,0
		C134.9,85.1,134.5,84.6,134.5,84z"/>
	<path fill="#3BBFC7" d="M116.9,103.6l-6.1,0c-0.6,0-1.1-0.4-1.1-0.8l0-0.6c0-0.5,0.5-0.8,1.1-0.8l6.1,0c0.6,0,1.1,0.4,1.1,0.8
		l0,0.6C118,103.2,117.5,103.6,116.9,103.6z"/>
</g>
</svg>
